<?xml version="1.0" encoding="UTF-8" standalone="no"?>
<!DOCTYPE svg PUBLIC "-//W3C//DTD SVG 1.1//EN" "http://www.w3.org/Graphics/SVG/1.1/DTD/svg11.dtd">
<svg width="100%" height="100%" viewBox="0 0 500 200" version="1.1" xmlns="http://www.w3.org/2000/svg" xmlns:xlink="http://www.w3.org/1999/xlink" xml:space="preserve" xmlns:serif="http://www.serif.com/" style="fill-rule:evenodd;clip-rule:evenodd;stroke-linejoin:round;stroke-miterlimit:2;">
    <g id="Light">
        <g transform="matrix(1,0,0,1,324.786,-311.463)">
            <g transform="matrix(1,0,0,1,-87.5,-156)">
                <path d="M129.002,528.912C128.578,522.298 133.594,516.593 140.207,516.167L214.796,511.371C221.41,510.946 227.116,515.962 227.541,522.576L234.478,630.446C234.903,637.06 229.886,642.766 223.273,643.192L148.673,647.989C142.058,648.414 136.352,643.397 135.927,636.783L129.002,528.912Z" style="fill:white;stroke:rgb(231,231,231);stroke-width:2px;"/>
            </g>
            <g transform="matrix(1,0,0,1,-87.5,-156)">
                <path d="M182.482,621.452C199.322,620.37 209.162,611.235 208.302,597.856L208.299,597.809C207.622,587.284 201.034,581.977 186.577,579.948L179.326,578.958C171.269,577.832 167.826,575.423 167.543,571.026L167.54,570.979C167.215,565.927 171.642,562.448 178.609,561.953C185.719,561.496 190.613,564.563 191.719,569.33L191.848,569.886L205.133,569.031L205.047,568.426C203.434,557.21 193.636,549.479 177.872,550.493C162.903,551.455 152.676,560.427 153.482,572.964L153.485,573.01C154.144,583.255 160.6,589.416 174.817,591.367L182.02,592.36C190.505,593.552 193.985,595.818 194.271,600.262L194.274,600.308C194.608,605.501 189.647,609.437 182.116,609.921C174.211,610.429 168.518,607.366 167.678,602.347L167.602,601.883L153.989,602.758L154.084,603.504C155.649,615.428 166.343,622.49 182.482,621.452Z" style="fill:rgb(48,39,231);fill-rule:nonzero;"/>
            </g>
        </g>
        <g transform="matrix(1,0,0,1,217.259,-232.576)">
            <g transform="matrix(1,0,0,1,-87.5,-156)">
                <path d="M161.053,430.966C161.553,424.358 167.314,419.405 173.922,419.904L248.453,425.531C255.061,426.03 260.014,431.791 259.515,438.4L251.378,546.186C250.879,552.795 245.118,557.748 238.509,557.249L163.967,551.622C157.358,551.123 152.405,545.36 152.904,538.751L161.053,430.966Z" style="fill:white;stroke:rgb(231,231,231);stroke-width:2px;"/>
            </g>
            <g transform="matrix(1,0,0,1,-87.5,-156)">
                <path d="M173.692,526.235L200.241,528.239C220.434,529.764 232.817,518.288 234.461,496.507L234.468,496.413C236.063,475.286 225.385,462.305 205.333,460.791L178.783,458.787L173.692,526.235ZM188.686,515.662L192.021,471.491L202.211,472.26C214.457,473.185 221.102,481.678 220.054,495.56L220.047,495.654C218.96,510.05 211.356,517.373 198.876,516.431L188.686,515.662Z" style="fill:rgb(0,236,240);fill-rule:nonzero;"/>
            </g>
        </g>
        <g transform="matrix(1,0,0,1,152.024,-126.197)">
            <g transform="matrix(1,0,0,1,-87.5,-156)">
                <path d="M128.68,348.226C128.388,341.606 133.519,336.002 140.139,335.71L214.809,332.417C221.43,332.125 227.034,337.256 227.326,343.877L232.089,451.865C232.381,458.486 227.25,464.09 220.629,464.382L145.947,467.676C139.326,467.968 133.722,462.836 133.43,456.215L128.68,348.226Z" style="fill:white;stroke:rgb(231,231,231);stroke-width:2px;"/>
            </g>
            <g transform="matrix(1,0,0,1,-87.5,-156)">
                <path d="M155.154,441.198L169.297,440.574L168.206,415.848L179.773,415.338L193.461,439.508L209.476,438.802L194.057,412.597C201.649,409.212 205.817,401.568 205.435,392.904L205.431,392.811C204.844,379.511 195.679,371.704 180.319,372.382L152.174,373.623L155.154,441.198ZM167.752,405.546L166.804,384.051L179.073,383.51C186.145,383.198 190.686,387.221 190.973,393.73L190.977,393.824C191.27,400.473 187.28,404.684 180.209,404.996L167.752,405.546Z" style="fill:rgb(252,181,38);fill-rule:nonzero;"/>
            </g>
        </g>
        <g transform="matrix(1,0,0,1,43.3265,-47.6999)">
            <g transform="matrix(1,0,0,1,-87.5,-156)">
                <path d="M158.307,246.013C159.649,239.524 165.998,235.35 172.487,236.691L245.683,251.818C252.173,253.159 256.348,259.508 255.006,265.998L233.13,371.855C231.789,378.345 225.44,382.519 218.95,381.178L145.742,366.049C139.252,364.707 135.078,358.358 136.42,351.867L158.307,246.013Z" style="fill:white;stroke:rgb(231,231,231);stroke-width:2px;"/>
            </g>
            <g transform="matrix(1,0,0,1,-87.5,-156)">
                <path d="M154.645,341.291L169.197,344.299L177.429,329.247L200.795,334.076L202.386,351.158L216.984,354.175L207.629,283.171L191.333,279.804L154.645,341.291ZM196.359,294.627L197.185,294.798L199.771,323.047L182.741,319.527L196.359,294.627Z" style="fill:rgb(56,200,121);fill-rule:nonzero;"/>
            </g>
        </g>
        <g transform="matrix(1,0,0,1,-16.7555,38.4668)">
            <g transform="matrix(1,0,0,1,-87.5,-156)">
                <path d="M115.715,188.885C114.775,182.325 119.331,176.245 125.891,175.305L199.878,164.702C206.438,163.762 212.519,168.318 213.459,174.879L228.793,281.879C229.733,288.439 225.177,294.519 218.617,295.46L144.619,306.064C138.058,307.005 131.977,302.448 131.038,295.887L115.715,188.885Z" style="fill:white;stroke:rgb(231,231,231);stroke-width:2px;"/>
            </g>
            <g transform="matrix(1,0,0,1,-87.5,-156)">
                <path d="M177.646,276.771C193.793,274.456 203.884,263.255 203.315,249.036L203.288,248.519L189.646,250.474L189.606,250.859C189.146,258.217 184.017,263.735 175.99,264.885C165.41,266.401 157.591,258.43 155.53,244.046L155.516,243.953C153.455,229.569 158.727,219.768 169.26,218.259C177.241,217.115 183.959,221.362 186.474,228.672L186.521,228.997L200.163,227.042L200.083,226.485C196.755,212.519 183.427,204.106 167.558,206.38C148.116,209.167 138.066,224.292 141.178,246.008L141.192,246.101C144.304,267.816 158.25,279.55 177.646,276.771Z" style="fill:rgb(250,181,185);fill-rule:nonzero;"/>
            </g>
        </g>
    </g>
</svg>
